<svg width="30" height="31" viewBox="0 0 30 31" fill="none" xmlns="http://www.w3.org/2000/svg">
<path d="M13.5 10.6667H16.5V7.66675H13.5V10.6667ZM15 27.1667C8.385 27.1667 3 21.7817 3 15.1667C3 8.55175 8.385 3.16675 15 3.16675C21.615 3.16675 27 8.55175 27 15.1667C27 21.7817 21.615 27.1667 15 27.1667ZM15 0.166748C13.0302 0.166748 11.0796 0.554735 9.25975 1.30856C7.43986 2.06238 5.78628 3.16727 4.3934 4.56015C1.58035 7.37319 0 11.1885 0 15.1667C0 19.145 1.58035 22.9603 4.3934 25.7733C5.78628 27.1662 7.43986 28.2711 9.25975 29.0249C11.0796 29.7788 13.0302 30.1667 15 30.1667C18.9782 30.1667 22.7936 28.5864 25.6066 25.7733C28.4196 22.9603 30 19.145 30 15.1667C30 13.1969 29.612 11.2464 28.8582 9.4265C28.1044 7.60661 26.9995 5.95302 25.6066 4.56015C24.2137 3.16727 22.5601 2.06238 20.7403 1.30856C18.9204 0.554735 16.9698 0.166748 15 0.166748ZM13.5 22.6667H16.5V13.6667H13.5V22.6667Z" fill="white"/>
</svg>
