<svg width="30" height="35" viewBox="0 0 30 35" fill="none" xmlns="http://www.w3.org/2000/svg">
<path d="M26.0878 30.8333H3.91253V12.4999H26.0878V30.8333ZM26.0878 4.16659H24.5039V0.833252H21.336V4.16659H8.66437V0.833252H5.49648V4.16659H3.91253C2.15434 4.16659 0.744629 5.66659 0.744629 7.49992V30.8333C0.744629 31.7173 1.07839 32.5652 1.67248 33.1903C2.26658 33.8154 3.07235 34.1666 3.91253 34.1666H26.0878C26.928 34.1666 27.7338 33.8154 28.3279 33.1903C28.922 32.5652 29.2557 31.7173 29.2557 30.8333V7.49992C29.2557 6.61586 28.922 5.76802 28.3279 5.1429C27.7338 4.51777 26.928 4.16659 26.0878 4.16659ZM22.1755 17.5999L20.4965 15.8333L12.7668 23.9666L9.40883 20.4333L7.72984 22.1999L12.7668 27.4999L22.1755 17.5999Z" fill="white"/>
</svg>
