<svg width="30" height="31" viewBox="0 0 30 31" fill="none" xmlns="http://www.w3.org/2000/svg">
<path d="M0 30.5V8C0 7.60218 0.158035 7.22064 0.43934 6.93934C0.720644 6.65804 1.10218 6.5 1.5 6.5H7.5V0.5H22.5V6.5H28.5C28.8978 6.5 29.2794 6.65804 29.5607 6.93934C29.842 7.22064 30 7.60218 30 8V30.5H18V23H12V30.5H0ZM10.5 3.5V12.5H13.5V9.5H16.5V12.5H19.5V3.5H16.5V6.5H13.5V3.5H10.5ZM3 27.5H9V23H3V27.5ZM3 20H9V15.5H3V20ZM21 27.5H27V23H21V27.5ZM21 20H27V15.5H21V20ZM12 20H18V15.5H12V20Z" fill="white"/>
</svg>
