<svg width="30" height="31" viewBox="0 0 30 31" fill="none" xmlns="http://www.w3.org/2000/svg">
<path d="M15 0.833374C16.9891 0.833374 18.8968 1.62355 20.3033 3.03007C21.7098 4.4366 22.5 6.34425 22.5 8.33337C22.5 10.3225 21.7098 12.2302 20.3033 13.6367C18.8968 15.0432 16.9891 15.8334 15 15.8334C13.0109 15.8334 11.1032 15.0432 9.6967 13.6367C8.29018 12.2302 7.5 10.3225 7.5 8.33337C7.5 6.34425 8.29018 4.4366 9.6967 3.03007C11.1032 1.62355 13.0109 0.833374 15 0.833374ZM15 19.5834C23.2875 19.5834 30 22.9396 30 27.0834V30.8334H0V27.0834C0 22.9396 6.7125 19.5834 15 19.5834Z" fill="white"/>
</svg>
